<?xml version="1.0" encoding="UTF-8"?>
<svg width="512px" height="512px" viewBox="0 0 512 512" xmlns="http://www.w3.org/2000/svg" xmlns:xlink="http://www.w3.org/1999/xlink" version="1.1">
 <!-- Generated by Pixelmator Pro 2.2 -->
 <path id="Path" d="M374.75 399.537 L312.406 399.537 C307.508 399.537 303.5 395.529 303.5 390.63 L303.5 360.943 C303.5 356.045 307.508 352.037 312.406 352.037 L374.75 352.037 C387.887 352.037 398.5 341.423 398.5 328.287 L398.5 185.787 C398.5 172.65 387.887 162.037 374.75 162.037 L312.406 162.037 C307.508 162.037 303.5 158.029 303.5 153.13 L303.5 123.443 C303.5 118.545 307.508 114.537 312.406 114.537 L374.75 114.537 C414.086 114.537 446 146.451 446 185.787 L446 328.287 C446 367.623 414.086 399.537 374.75 399.537 Z M339.867 250.357 L215.18 125.67 C204.047 114.537 184.75 122.33 184.75 138.287 L184.75 209.537 83.813 209.537 C73.941 209.537 66 217.478 66 227.349 L66 298.599 C66 308.47 73.941 316.412 83.813 316.412 L184.75 316.412 184.75 387.662 C184.75 403.619 204.047 411.412 215.18 400.279 L339.867 275.591 C346.77 268.615 346.77 257.334 339.867 250.357 Z" fill="#000000" fill-opacity="0.502" stroke="none"/>
</svg>
