<?xml version="1.0" encoding="UTF-8"?>
<svg width="512px" height="512px" viewBox="0 0 512 512" xmlns="http://www.w3.org/2000/svg" xmlns:xlink="http://www.w3.org/1999/xlink" version="1.1">
 <!-- Generated by Pixelmator Pro 2.2 -->
 <path id="Path" d="M102 146 C102 133.831 111.831 124 124 124 L388 124 C400.169 124 410 133.831 410 146 410 158.169 400.169 168 388 168 L124 168 C111.831 168 102 158.169 102 146 Z M102 256 C102 243.831 111.831 234 124 234 L388 234 C400.169 234 410 243.831 410 256 410 268.169 400.169 278 388 278 L124 278 C111.831 278 102 268.169 102 256 Z M410 366 C410 378.169 400.169 388 388 388 L124 388 C111.831 388 102 378.169 102 366 102 353.831 111.831 344 124 344 L388 344 C400.169 344 410 353.831 410 366 Z" fill="#000000" fill-opacity="0.5" stroke="none"/>
</svg>
